<svg aria-hidden="true" style="width:0;height:0;position:absolute;overflow:hidden" xmlns="http://www.w3.org/2000/svg"><defs><symbol id="icon-sun" viewBox="0 0 32 32"><path stroke-linejoin="round" stroke-linecap="round" stroke-width="2" d="M16 26c5.523 0 10-4.477 10-10S21.523 6 16 6 6 10.477 6 16s4.477 10 10 10z"/><path stroke-linejoin="round" stroke-linecap="round" stroke-width="3" d="m25.814 6.186.182-.182M6.004 25.996l.182-.182M16 2.112V2m0 28v-.112M2.112 16H2m28 0h-.112M6.186 6.186l-.182-.182m19.992 19.992-.182-.182"/></symbol><symbol id="icon-moon" viewBox="0 0 32 32"><path stroke-linejoin="round" stroke-linecap="round" stroke-width="2.133" d="M2.189 16.585c.516 7.14 6.773 12.949 14.261 13.269 5.282.22 10.007-2.163 12.843-5.92 1.173-1.54.544-2.566-1.417-2.219-.96.166-1.948.235-2.978.192-7.002-.277-12.73-5.946-12.757-12.642v-.1c0-1.798.396-3.504 1.104-5.035l-.031.074c.772-1.717-.158-2.537-1.948-1.801-5.67 2.315-9.549 7.846-9.077 14.18z"/></symbol><symbol id="icon-close" viewBox="0 0 32 32"><path stroke-linejoin="round" stroke-linecap="round" stroke-width="2.667" d="M30 30 2 2m28 0L2 30"/></symbol></defs></svg>