<svg xmlns="http://www.w3.org/2000/svg" width="27" height="32" fill="none">
  <path fill="#fff" d="M4.601 13.28a14.808 14.808 0 0 1-1.91-.72c-.396-.208-.787-.43-1.134-.712-.347-.28-.652-.625-.84-1.027-.254-.395-.325-.894-.234-1.355a2.29 2.29 0 0 1 .659-1.19A6.545 6.545 0 0 1 2.985 6.85c.58.096 1.105.484 1.37 1.015 0 0 19.904-1.511 19.906-1.513a2.54 2.54 0 0 1 2.2 1.532c.176.466.118 1.001-.087 1.456-.204.454-.545.834-.93 1.157a13.705 13.705 0 0 1-2.416 1.57 18.806 18.806 0 0 1-3.627 1.266 44.41 44.41 0 0 1-3.382.582c-.94.131-1.885.23-2.817.294-.866.05-1.734.06-2.594.026a44.548 44.548 0 0 1-1.834-.147c-1.358-.145-2.714-.37-4.173-.808Z"/>
  <path fill="#FFC589" d="M1.577 9.115c-.262-.033-.526.127-.656.359-.13.232-.136.52-.056.775.08.253.239.476.423.667.184.19.393.355.58.524a9.7 9.7 0 0 0 2.58 1.076c.574.164 1.158.297 1.769.406 1.524.301 3.075.459 4.627.47 0 0 .08-.012.084 0 2.164.097 4.34-.07 6.468-.5 2.167-.36 4.289-.998 6.272-1.916a6.273 6.273 0 0 0 1.817-1.418.118.118 0 0 0 .063-.047c.014-.023.015-.055-.002-.076-.021-.025-.06-.026-.09-.02a.477.477 0 0 0-.193.077.55.55 0 0 0 .13-.235.387.387 0 0 0-.024-.266.333.333 0 0 0-.202-.167c.127-.188.255-.378.343-.588a1.22 1.22 0 0 0 .1-.667c-.037-.225-.17-.44-.372-.542a.702.702 0 0 0-.47-.047c-.156.036-.3.117-.428.224.153-.208.267-.446.334-.696.035-.13.057-.267.037-.4a.487.487 0 0 0-.2-.34.514.514 0 0 0-.388-.053.612.612 0 0 0-.332.184.917.917 0 0 0-.184-.526.65.65 0 0 0-.484-.254.705.705 0 0 0-.46.178c-.128.108-.226.25-.317.389.037-.196.037-.4-.014-.593a.985.985 0 0 0-.309-.5 1.023 1.023 0 0 0-.615-.224 1.252 1.252 0 0 0-.46.067.474.474 0 0 0-.176.097.886.886 0 0 0 .01-.718 1.194 1.194 0 0 0-.478-.547 1.849 1.849 0 0 0-.688-.243c-.388-.063-.813-.028-1.133.203a.392.392 0 0 0-.076-.195 2.01 2.01 0 0 0-1.04-.809 2.007 2.007 0 0 0-1.303.014.772.772 0 0 0-.825-.262A1.68 1.68 0 0 0 14.111.9a1.68 1.68 0 0 0-1.514.348c-.123-.368-.4-.68-.747-.845a1.434 1.434 0 0 0-1.121-.04 1.45 1.45 0 0 0-.805.795C9.761.797 9.372.566 8.98.547 8.586.527 8.2.7 7.907.968c-.292.267-.493.623-.63.995-.138.373-.215.765-.287 1.154a1.074 1.074 0 0 0-.43-.15.582.582 0 0 0-.43.121c-.116.1-.18.267-.113.414a1.245 1.245 0 0 0-1.007-.441c-.379.02-.743.229-.955.546a.712.712 0 0 0-.13.337.934.934 0 0 0 .06.342c.095.305.222.623.468.814a.832.832 0 0 0-.689-.187c-.242.04-.463.18-.624.369-.15.174-.249.389-.302.613-.053.224-.059.458-.033.686-.02.177.016.36.101.516a.811.811 0 0 0 .393.36 1.305 1.305 0 0 0-.454.439 1.92 1.92 0 0 0-.404-.449.852.852 0 0 0-.56-.188.77.77 0 0 0-.61.425c-.118.231-.13.51-.06.76s.213.475.365.67l.001.001Z"/>
  <path fill="#FFE0C4" d="M10.199 12.079c.187-.136.37-.29.48-.495.11-.205.134-.471.006-.666a.577.577 0 0 0-.501-.244.807.807 0 0 0-.518.238c-.14.136-.238.31-.322.507-.042-.304-.252-.568-.516-.722-.263-.154-.574-.208-.878-.206-.137 0-.276.012-.407.055a.655.655 0 0 0-.332.234.447.447 0 0 0-.067.395.501.501 0 0 0 .206.246c.091.06.194.099.3.139-.179.028-.362.07-.512.172-.15.104-.262.281-.24.463a.49.49 0 0 0 .157.294.918.918 0 0 0 .288.174c.46.186.974.163 1.457.11.468-.235.983-.39 1.399-.693v-.001Z"/>
  <path fill="#FFF2DB" d="m25.553 10.371-1.029 9.154s-.617 5.56-.62 5.574a4.085 4.085 0 0 1-1.303 2.4 11.676 11.676 0 0 1-2.086 1.479c-.69.376-1.423.673-2.196.882a14.4 14.4 0 0 1-2.304.42c-.821.177-1.661.264-2.495.258-.613.04-1.23.017-1.848-.071a9.55 9.55 0 0 1-2.715-.593 10.055 10.055 0 0 1-2.555-1.308c-.271-.225-.544-.452-.772-.722-.229-.27-.412-.587-.477-.936l-1.228-5.056L2.55 16.26l-.967-3.873s-.157-.677-.186-.67a9.503 9.503 0 0 0 3.547 1.611 25.263 25.263 0 0 0 9.077.757 43.4 43.4 0 0 0 3.09-.387 18.656 18.656 0 0 0 4.463-1.077 12.714 12.714 0 0 0 2.301-1.052c.647-.377 1.221-.79 1.676-1.197h.001Z"/>
  <path fill="#F87719" d="M23.918 11.706s-1.504 15.93-1.49 15.94c-.57.5-1.196.935-1.862 1.296 0 0 1.209-16.374 1.224-16.393.73-.292 1.44-.633 2.131-1.028-.002.065-.004.13-.003.185ZM20.024 13.117s-.697 16.4-.708 16.4a7.478 7.478 0 0 1-1.66.49s.058-16.373.057-16.389a24.49 24.49 0 0 0 2.311-.5ZM15.818 13.906l-2.2.232s1.052 16.347 1.054 16.341c.544-.09 1.1-.11 1.636-.235l-.49-16.338ZM11.544 14.213a28.178 28.178 0 0 1-2.542-.146s2.14 16.341 2.144 16.343c.595.093 1.197.14 1.799.144l-1.401-16.34ZM7.092 13.819a17.59 17.59 0 0 1-2.342-.55l1.135 5.46s2.235 10.799 2.22 10.789c.492.244 1.01.438 1.54.577L7.092 13.819ZM1.441 11.73c.355.265.728.505 1.116.718 0 0 3.944 16.166 3.936 16.177-.295-.233-.588-.473-.832-.76-.244-.287-.44-.627-.508-.999L1.441 11.73Z"/>
  <path fill="#B15900" d="M19.795 8.426a1.53 1.53 0 0 0-1.21.799c-.011.023-.027.049-.053.051-.031.003-.052-.03-.067-.058a.843.843 0 0 0-.801-.431.847.847 0 0 0-.71.572.805.805 0 0 0-.912.1c.09-.218.152-.454.128-.69-.024-.235-.143-.468-.346-.586.069-.448.454-.827.9-.884a1.07 1.07 0 0 1 1.088.629c.18-.242.461-.404.758-.437a1.19 1.19 0 0 1 .844.245.847.847 0 0 0 .38.69h.001Z"/>
  <path fill="#FFE0C4" d="M22.349 7.097c.265-.052.53-.126.767-.258.238-.13.448-.323.567-.569a.913.913 0 0 0 .016-.791c-.122-.245-.394-.414-.663-.38a.787.787 0 0 0-.473.277c-.124.14-.214.307-.298.468-.038-.11-.153-.168-.261-.207a1.538 1.538 0 0 0-.707-.095c-.237.03-.47.135-.63.316a.81.81 0 0 0-.182.697.573.573 0 0 0-.527-.05.81.81 0 0 0-.4.367c-.09.162-.135.346-.154.531-.024.238-.006.487.099.702.105.215.305.391.54.422.218.029.44-.07.591-.232a1.05 1.05 0 0 0 .258-.584c.048.279.211.535.443.694.231.16.527.22.802.164.274-.056.523-.229.675-.467a.85.85 0 0 0 .14-.442.598.598 0 0 0-.164-.426.5.5 0 0 0-.44-.135v-.002Z"/>
  <path fill="#B15900" d="M20.787 4.505c-.234.26-.413.393-.65.81-.037.02-.062-.025-.062-.025-.276-.485-.959-.615-1.43-.455-.471.16-.742.663-.705 1.164-.011-.08-.123-.13-.197-.16a.824.824 0 0 0-.298-.025c-.392.031-.654.23-.883.553-.023.032-.053.068-.09.062-.036-.006-.054-.045-.064-.08-.108-.36-.069-.75.034-1.112.049-.174.114-.347.222-.491a.7.7 0 0 1 .441-.285.464.464 0 0 1 .465.203c-.059-.323.01-.667.186-.943.176-.276.46-.48.785-.545.225-.157.51-.204.783-.204.275.001.554.047.804.162.25.116.473.304.604.549a.93.93 0 0 1 .054.822Z"/>
  <path fill="#FFE0C4" d="M15.314 4.288c.276-.013.516-.12.73-.25.138-.082.267-.186.352-.323a.564.564 0 0 0 .073-.464.61.61 0 0 0-.242-.301.907.907 0 0 0-.905-.073c.206-.534.422-.567.747-.695a.916.916 0 0 0-1.025-.131.96.96 0 0 0-.48.929c-.228-.1-.47-.178-.719-.186a1.029 1.029 0 0 0-.696.22c-.19.161-.304.424-.255.67a.61.61 0 0 0 .233.367c.118.087.27.129.425.125a1.027 1.027 0 0 0-.338.444.658.658 0 0 0 .034.549c.098.166.28.268.469.301.188.033.382.001.566-.053.264-.078.517-.207.711-.405.194-.198.295-.46.32-.724Z"/>
  <path fill="#B15900" d="M12.615 1.247a2.204 2.204 0 0 0-.866 1.74.562.562 0 0 1-.245-.087c-.167-.1-.323-.219-.495-.309-.27-.14-.58-.25-.874-.177-.328.082-.574.39-.634.726-.06.336.045.687.241.974a1.275 1.275 0 0 0-.691.73c.01-.197.02-.397-.017-.592a.846.846 0 0 0-.277-.509.674.674 0 0 0-.73-.053c-.228.125-.375.378-.39.67a3.924 3.924 0 0 0-.209-.687 1.369 1.369 0 0 0-.432-.564c.036-.415.3-.802.671-.983.372-.18.836-.149 1.18.081.24-.42.67-.724 1.142-.808.473-.083.98.055 1.352.373.107-.234.302-.426.536-.528a.871.871 0 0 1 .738.004Z"/>
  <path fill="#FFE0C4" d="M11.787 9.148c.216.22.55.296.852.242.302-.054.575-.224.8-.434.167-.155.315-.34.38-.558.066-.22.036-.477-.119-.644a.702.702 0 0 0-.48-.202 1.492 1.492 0 0 0-.537.085 2.17 2.17 0 0 0 .401-.712c.034-.099.06-.201.056-.305a.399.399 0 0 0-.115-.28.391.391 0 0 0-.318-.087.825.825 0 0 0-.313.126c-.39.24-.691.623-.826 1.08-.165-.298-.523-.453-.859-.426-.336.026-.645.21-.88.453-.133.137-.251.306-.262.499a.6.6 0 0 0 .268.509.88.88 0 0 0 .57.134c.198-.017.39-.084.577-.15a.871.871 0 0 0-.311.418.647.647 0 0 0 .041.514.501.501 0 0 0 .43.259.596.596 0 0 0 .39-.18c.107-.102.187-.227.255-.342Z"/>
  <path fill="#B15900" d="M9.813 12.46c.121-.047.246-.097.336-.19.09-.095.132-.249.063-.36-.05-.078-.143-.117-.232-.142a1.296 1.296 0 0 0-.832.046c-.261.108-.485.311-.611.566a.52.52 0 0 0-.062.216.25.25 0 0 0 .085.202c.074.058.178.053.27.039.363-.056.68-.263.983-.379v.001ZM3.057 9.76c.107-.125.199-.275.203-.44.004-.165-.107-.341-.27-.36a.348.348 0 0 0-.255.09c-.07.06-.124.138-.177.214-.153.221-.306.454-.346.72-.014.096-.002.213.082.258.06.032.132.015.194-.008.265-.097.445-.328.57-.473Z"/>
  <path fill="#FFE0C4" d="M4.754 7.868c-.236-.04-.473.16-.515.398-.043.239.084.488.279.63.194.142.444.188.684.174.24-.015.472-.085.7-.16a.397.397 0 0 0 .14.337.73.73 0 0 0 .34.155c.384.08.801-.022 1.105-.272.144-.118.335-.3.394-.478.06-.178-.019-.352-.112-.514a.663.663 0 0 0-.54-.31c-.215-.011-.428.07-.634.195a1.68 1.68 0 0 0 .523-.729c.06-.166.092-.36.002-.512a.418.418 0 0 0-.37-.19.593.593 0 0 0-.386.178 1.103 1.103 0 0 0-.238.381 1.305 1.305 0 0 0-.105-.377c-.06-.116-.164-.217-.292-.24-.127-.022-.255.035-.364.106-.407.267-.654.764-.61 1.228ZM16.515 11.338a2.36 2.36 0 0 0 .909-.115c.29-.1.56-.27.763-.502a.522.522 0 0 0 .148-.29.423.423 0 0 0-.148-.33c-.171-.16-.424-.212-.655-.18-.232.03-.448.136-.654.254a.917.917 0 0 0 .17-.339.49.49 0 0 0-.052-.368c-.101-.16-.31-.225-.497-.199-.186.026-.354.126-.51.232.078-.205.157-.415.163-.635.006-.22-.074-.455-.255-.577-.202-.138-.487-.098-.686.044-.2.142-.324.368-.406.6-.106.3-.152.62-.126.953a.608.608 0 0 0-.516-.428.723.723 0 0 0-.625.274.918.918 0 0 0-.18.675c.028.237.138.46.301.658-.106.12-.214.243-.284.388a.6.6 0 0 0-.041.468.547.547 0 0 0 .33.304.989.989 0 0 0 .455.035c.289-.035.568-.146.805-.317.252-.183.46-.435.743-.565.27-.123.573-.056.848-.04Z"/>
  <path fill="#B15900" d="M24.4 10.501c.035-.126-.024-.266-.126-.347a.527.527 0 0 0-.367-.098c-.13.01-.253.053-.374.1a4.26 4.26 0 0 0-1.042.574c-.096.073-.194.16-.226.277-.037.137.024.28.083.408.015.032.033.067.067.077.024.006.049-.003.072-.011a8.868 8.868 0 0 0 1.913-.98ZM7.693 8.051a.834.834 0 0 1 .254-.18.397.397 0 0 1 .304-.008c.08.034.143.1.188.175.045.075.075.158.101.246.084-.113.17-.226.276-.319a.692.692 0 0 1 .372-.178.533.533 0 0 1 .385.117c.088-.278.282-.52.538-.642-.2-.019-.38-.144-.503-.305a1.582 1.582 0 0 1-.246-.553.65.65 0 0 1-.596.278.66.66 0 0 1-.525-.394 1.019 1.019 0 0 1-.49.426.921.921 0 0 1-.632.03c.09.193.064.424-.02.62-.084.195-.22.361-.353.54a.928.928 0 0 1 .947.147Z"/>
  <path fill="#fff" d="M23.92 25.124c.168.655.042 1.364-.258 1.968-.3.604-.764 1.113-1.28 1.556a11.239 11.239 0 0 1-3.956 2.025 19.85 19.85 0 0 1-4.268.632c-1.6.088-3.213-.07-4.766-.47a7.792 7.792 0 0 1-3.239-1.558 4.19 4.19 0 0 1-1.072-1.418c-.074-.16-.139-.33-.14-.507 0-.177.075-.364.21-.445.142.493.448.926.818 1.277.371.35.806.624 1.232.878.85.453 1.741.83 2.65 1.126a13.92 13.92 0 0 0 4.846.27 21.77 21.77 0 0 0 4.299-.807 10.169 10.169 0 0 0 3.805-2.355c.542-.555.924-1.268 1.119-2.171Z"/>
  <path fill="#B15900" d="M15.894 10.498a4.976 4.976 0 0 0-1.124.39c-.092.046-.188.098-.235.19-.06.111-.03.247-.04.373-.007.087-.034.173-.032.261.002.088.044.184.127.211a.292.292 0 0 0 .145-.003l.885-.172c.182-.035.367-.071.535-.151a.76.76 0 0 0 .39-.384c.088-.218.068-.482-.118-.624-.122-.093-.374-.134-.533-.092Z"/>
  <path fill="#000" d="M26.577 8.15c-.078-.433-.342-.858-.74-1.198-.324-.276-.636-.486-1.097-.613.032-.19.014-.341-.054-.46a.512.512 0 0 0-.458-.242.674.674 0 0 0-.418.175.852.852 0 0 0-.086-.344c-.14-.278-.446-.444-.73-.396a.82.82 0 0 0-.475.298 1.48 1.48 0 0 0-.133.188c.05-.372-.075-.765-.34-1.003a1.067 1.067 0 0 0-1.211-.122c.127-.373-.021-.76-.242-.996-.294-.313-.716-.428-1.018-.47-.319-.043-.598-.02-.832.068-.081.031-.157.071-.227.118a1.939 1.939 0 0 0-1.167-.995 2.073 2.073 0 0 0-1.273.01c-.181-.208-.518-.296-.816-.233A1.638 1.638 0 0 0 14.149.863a1.714 1.714 0 0 0-1.541.308 1.472 1.472 0 0 0-1.3-.956 1.504 1.504 0 0 0-1.371.84C9.658.551 9.035.407 8.568.532c-.48.127-.913.506-1.19 1.038-.246.475-.347 1-.416 1.5a.95.95 0 0 0-.307-.13.643.643 0 0 0-.538.1.458.458 0 0 0-.17.35 1.085 1.085 0 0 0-.545-.342 1.31 1.31 0 0 0-.789.061c-.181.068-.505.233-.646.567-.108.258-.084.579.068.882.07.139.158.264.256.38a.947.947 0 0 0-.584-.063c-.309.068-.595.297-.765.613-.146.27-.213.598-.202.973.005.146.022.276.051.392a3.209 3.209 0 0 0-.599.405.807.807 0 0 0-.502-.009c-.376.125-.566.54-.56.886 0 .016.002.031.003.047A2.22 2.22 0 0 0 .4 9.852c.028.614.346 1.26.871 1.77.035.034.07.067.108.1.107.43 3.374 13.577 3.738 15.186h-.002c-.187.118-.21.3-.211.445 0 .196.071.38.141.533.54 1.187 1.597 1.906 2.388 2.3.946.473 1.958.734 3.187.98a17.9 17.9 0 0 0 2.743.201c.954 0 2.015-.073 2.98-.22 2.32-.352 4.29-1.109 5.7-2.19.318-.243 1.386-1.117 1.788-2.126.17-.429.26-1.183.106-1.798l1.636-14.651v-.001c.117-.102.23-.205.341-.31.53-.614.772-1.314.662-1.92V8.15ZM2.81 6.92a1.09 1.09 0 0 0 .088.204l-.399.284a.037.037 0 0 0-.008.008.962.962 0 0 0-.224-.133c.168-.14.35-.261.543-.363Zm.027.897a1.613 1.613 0 0 0-.291-.356l.39-.276a.796.796 0 0 0 .288.263c-.16.102-.29.227-.387.37Zm-1.126-.503a.79.79 0 0 1 .655.1c.203.128.323.302.429.47a1.191 1.191 0 0 0-.124.894.035.035 0 0 0 .034.026l.01-.001a.036.036 0 0 0 .024-.044 1.12 1.12 0 0 1 .058-.726 1.21 1.21 0 0 1 .52-.559.035.035 0 0 0 .018-.033.035.035 0 0 0-.022-.03.74.74 0 0 1-.389-.39 1.443 1.443 0 0 1-.114-.564c-.012-.363.053-.678.193-.937.16-.298.43-.514.718-.577a.886.886 0 0 1 .737.18l.127.127a.035.035 0 0 0 .049 0 .036.036 0 0 0 .003-.048.882.882 0 0 0-.13-.132 2.254 2.254 0 0 1-.41-.546c-.142-.284-.166-.584-.066-.823.13-.31.436-.463.606-.528.258-.097.516-.117.746-.058.248.063.47.228.608.452.01.016.031.021.047.011a.036.036 0 0 0 .013-.048c-.075-.133-.026-.33.108-.436a.574.574 0 0 1 .48-.087c.267.06.514.26.677.55.155.275.223.598.284.884a.035.035 0 0 0 .07-.01.768.768 0 0 1 .282-.648.639.639 0 0 1 .683-.062c.171.095.299.284.35.517.046.214.027.436.008.653a.035.035 0 0 0 .068.017c.126-.298.276-.505.459-.632a.765.765 0 0 1 .232-.11.035.035 0 0 0 .026.013.034.034 0 0 0 .033-.026.59.59 0 0 1 .43.07c.151.097.255.281.283.504.027.206-.01.416-.05.614a.035.035 0 1 0 .07.014c.04-.204.079-.42.05-.637-.031-.244-.146-.446-.316-.556a.647.647 0 0 0-.5-.076 1.22 1.22 0 0 1-.267-.72.96.96 0 0 1 .306-.733.767.767 0 0 1 .752-.16.036.036 0 0 0 .023-.067.838.838 0 0 0-.822.173 1.033 1.033 0 0 0-.33.787c.005.257.099.517.265.74a.852.852 0 0 0-.225.11 1.317 1.317 0 0 0-.402.488c.01-.16.01-.321-.025-.481-.055-.254-.195-.46-.384-.565a.71.71 0 0 0-.759.068.816.816 0 0 0-.291.47 2.549 2.549 0 0 0-.242-.674 1.312 1.312 0 0 0-.352-.409c.069-.504.167-1.036.415-1.512.267-.515.684-.88 1.145-1.003.46-.122 1.078.03 1.32.553.006.013.02.021.033.02a.035.035 0 0 0 .032-.022 1.424 1.424 0 0 1 1.333-.865c.563.022 1.09.424 1.252.956.003.011.013.02.024.024.011.003.024 0 .033-.008A1.64 1.64 0 0 1 14.128.93c.525.158.91.529 1.064 1.022a.78.78 0 0 0-.156.065c-.324.18-.53.54-.527.912a1.702 1.702 0 0 0-.706-.172H13.8a1.03 1.03 0 0 0-.729.28c-.202.202-.281.505-.197.754.081.24.314.406.568.417a1.04 1.04 0 0 0-.288.432c-.07.215-.039.45.079.613.102.14.274.238.472.266.046.007.094.01.143.01.117 0 .245-.019.392-.058.331-.09.595-.236.784-.436.227-.24.334-.557.285-.847a.035.035 0 0 0-.04-.029.036.036 0 0 0-.03.041c.045.264-.057.565-.266.786-.18.19-.433.33-.75.416-.2.054-.361.069-.508.047a.634.634 0 0 1-.425-.238.624.624 0 0 1-.068-.55c.054-.167.172-.328.34-.464a.036.036 0 0 0-.025-.063.57.57 0 0 1-.597-.367.681.681 0 0 1 .18-.68.96.96 0 0 1 .68-.259h.002c.226 0 .465.063.73.19a.035.035 0 0 0 .034-.002.036.036 0 0 0 .016-.032.987.987 0 0 1 .488-.905c.296-.164.718-.11.934.113a2.021 2.021 0 0 0-.273.125.036.036 0 0 0-.014.048c.009.018.03.024.048.014a2 2 0 0 1 1.562-.154c.51.164.9.5 1.13.97a.91.91 0 0 0-.308.423.035.035 0 0 0 .022.045.035.035 0 0 0 .044-.022c.079-.237.285-.439.553-.54.222-.085.49-.106.797-.064.291.04.697.15.977.448.266.283.342.704.184 1.023a.036.036 0 0 0 .009.043c.012.01.03.011.044.001a.991.991 0 0 1 1.22.055c.32.288.421.822.232 1.241a.036.036 0 0 0 .017.047.035.035 0 0 0 .046-.016c.075-.151.16-.323.278-.464a.752.752 0 0 1 .434-.274c.25-.042.53.112.654.359.115.23.105.53-.026.785-.148.286-.402.46-.59.555-.2.101-.415.163-.623.222l-.056.016a.386.386 0 0 0-.085.026.036.036 0 0 0-.02.045.035.035 0 0 0 .043.022l.08-.024a.46.46 0 0 1 .465.264c.087.186.065.436-.058.652-.216.38-.696.587-1.116.48-.414-.105-.749-.515-.761-.934a.035.035 0 0 0-.035-.035.036.036 0 0 0-.035.033c-.013.184-.064.445-.236.648-.157.186-.395.28-.604.24a.667.667 0 0 1-.433-.33 1.19 1.19 0 0 1-.143-.55c-.008-.21.016-.601.276-.878.199-.21.564-.32.831-.138a.035.035 0 0 0 .05-.01.036.036 0 0 0-.01-.05c-.299-.201-.703-.082-.922.15-.206.218-.31.548-.295.928.01.23.061.428.153.585.111.19.29.326.48.362.234.045.497-.058.67-.263.12-.14.184-.305.219-.457.102.363.405.673.777.767.08.02.162.03.244.03.38 0 .761-.209.952-.543.136-.24.158-.508.06-.718a.549.549 0 0 0-.338-.288c.165-.049.34-.107.503-.189.196-.1.463-.282.62-.586.066-.129.104-.269.111-.407h.001a.62.62 0 0 1 .421-.203.447.447 0 0 1 .395.208c.064.111.076.26.037.457a2.221 2.221 0 0 1-.552 1.04.036.036 0 0 0 0 .047.035.035 0 0 0 .047.006.633.633 0 0 0 .066-.069c.093-.102.284-.313.442-.367a.692.692 0 0 1 .628.08c.253.187.315.544.263.816-.057.3-.226.564-.424.852a.036.036 0 0 0-.003.034c.005.012.015.02.027.021.083.014.16.084.19.175a.4.4 0 0 1-.019.279c-.02.047-.046.09-.07.134a.982.982 0 0 0-.066.123.035.035 0 0 0 .062.034.346.346 0 0 1 .184-.134c.03-.009.069-.01.08.01.008.013.003.036-.012.052a.132.132 0 0 1-.054.042h-.001l-.006.005a.027.027 0 0 0-.005.004h-.001c-1.067 1.26-2.67 1.85-4.09 2.306-4.804 1.539-9.79 1.898-14.82 1.068-2.555-.434-4.283-1.095-5.135-1.963-.162-.166-.363-.39-.474-.665-.112-.276-.115-.562-.006-.785a.672.672 0 0 1 .66-.373.036.036 0 0 0 .035-.018.036.036 0 0 0-.003-.04c-.262-.325-.398-.645-.403-.954-.006-.32.167-.703.51-.816Zm22.875-.49c.077.023.175.06.26.095a.816.816 0 0 0-.204.041.674.674 0 0 0-.187.11c.05-.08.093-.162.13-.245h.001ZM4.645 24.64c-.311-1.276-.748-3.052-1.299-5.279-.849-3.435-1.711-6.907-1.873-7.558.286.241.624.46 1.035.667l3.925 16.063c-.657-.489-1.078-.998-1.213-1.477-.005-.052-.039-.198-.151-.67-.096-.401-.238-.988-.424-1.746Zm15.885 4.288c-.383.209-.777.395-1.181.555l.707-16.32-.002-.008.152-.04a17.47 17.47 0 0 0 1.522-.499L20.53 28.927Zm1.27-16.34a14.1 14.1 0 0 0 2.075-.992l-1.509 16.043c0 .004 0 .009.002.013a10.655 10.655 0 0 1-1.764 1.235L21.8 12.592v-.005ZM19.276 29.51c-.516.2-1.048.36-1.59.476l.045-16.33a25.33 25.33 0 0 0 2.253-.484l-.708 16.338Zm-1.661.492c-.297.062-.598.111-.901.148l-.39.07-.5-16.285a43.885 43.885 0 0 0 1.836-.267l-.045 16.334Zm-1.861-16.059.5 16.289c-.538.091-1.059.16-1.563.209l-1.043-16.263.146-.01c.648-.071 1.303-.143 1.96-.225Zm-2.176.24 1.043 16.264v.001c-.575.053-1.129.078-1.665.074l-1.395-16.278.193.002c.616 0 1.226-.021 1.824-.062v-.001Zm-2.088.06 1.396 16.278a13.56 13.56 0 0 1-1.73-.126L9.031 14.113c.817.079 1.641.122 2.458.13Zm-2.53-.137 2.123 16.28a9.358 9.358 0 0 1-1.413-.306L7.106 13.857a24.782 24.782 0 0 0 1.854.249Zm-1.928-.261 2.563 16.213a11.95 11.95 0 0 1-1.447-.544L4.783 13.33a21.39 21.39 0 0 0 2.25.514Zm-2.325-.538 3.36 16.172a10.91 10.91 0 0 1-.775-.394 8.254 8.254 0 0 1-.773-.489v-.005l-3.928-16.08c.095.046.194.093.297.138.55.245 1.161.465 1.818.659Zm19.059 13.496c-.395.992-1.45 1.855-1.765 2.096-2.959 2.269-7.968 2.729-11.368 2.195-1.222-.245-2.228-.504-3.168-.973-.78-.39-1.822-1.098-2.354-2.266-.067-.147-.136-.322-.135-.504 0-.18.049-.292.159-.37a1.081 1.081 0 0 1 .017.093c.27.963 1.547 1.861 2.941 2.491a12.386 12.386 0 0 0 1.545.578c.328.098.642.175.932.23.784.147 1.609.22 2.482.22 1.135 0 2.352-.124 3.672-.373a10.623 10.623 0 0 0 2.596-.65l.006-.003a10.682 10.682 0 0 0 2.704-1.544c.539-.423.931-.816 1.235-1.237.35-.487.572-1.014.646-1.53.088.555.002 1.176-.145 1.547Zm.087-1.645c-.059.533-.282 1.081-.645 1.586a5.32 5.32 0 0 1-.766.84l1.505-16c0-.01-.002-.02-.008-.027a11.306 11.306 0 0 0 1.556-1.11l-1.643 14.711Zm-3.666-12.114c-2.09.582-4.282.821-6.4 1.052a26.23 26.23 0 0 1-2.265.076h-.002c-3.18-.029-6.386-.604-8.603-1.588-.693-.308-1.2-.63-1.596-1.015C.81 11.071.5 10.443.471 9.85a2.147 2.147 0 0 1 .67-1.58c.035.262.155.53.36.8a.752.752 0 0 0-.65.416c-.119.242-.118.549.002.843.117.287.323.518.49.688.863.88 2.603 1.547 5.173 1.984a32.28 32.28 0 0 0 5.264.436c3.248 0 6.457-.503 9.589-1.506 1.426-.457 3.038-1.051 4.117-2.321a.206.206 0 0 0 .07-.056c.037-.04.046-.096.021-.137-.033-.055-.104-.057-.16-.04a.4.4 0 0 0-.07.027.934.934 0 0 0 .045-.09.472.472 0 0 0 .021-.328.334.334 0 0 0-.194-.209c.19-.279.35-.538.407-.837.033-.174.022-.38-.05-.562.081.077.149.149.187.197.21.268.32.619.287.915a.036.036 0 0 0 .03.04h.005a.035.035 0 0 0 .035-.031c.036-.32-.077-.682-.302-.968a2.434 2.434 0 0 0-.34-.333.682.682 0 0 0-.143-.145.696.696 0 0 0-.274-.119 4.884 4.884 0 0 0-.445-.174c.048-.116.086-.233.11-.35.446.123.75.328 1.064.596.387.33.642.74.717 1.156.106.585-.13 1.263-.643 1.857-1.418 1.353-3.328 2.371-5.677 3.025v.001Z"/>
  <path fill="#000" d="M26.009 8.663a.035.035 0 0 0-.043.026 1.148 1.148 0 0 1-.199.422.036.036 0 0 0 .007.05.035.035 0 0 0 .05-.007c.099-.132.172-.287.21-.449a.035.035 0 0 0-.025-.042ZM13.657 11.06a.035.035 0 0 0 .05.003.036.036 0 0 0 .003-.05 1.202 1.202 0 0 1-.297-.634.882.882 0 0 1 .18-.66.675.675 0 0 1 .614-.243.561.561 0 0 1 .459.449c.003.018.02.032.038.03a.035.035 0 0 0 .031-.038c-.024-.346-.002-.621.068-.866.084-.29.244-.54.45-.701.145-.114.299-.167.433-.15.245.032.406.29.433.519.03.254-.057.514-.133.743-.005.015 0 .03.012.04.013.01.03.009.043 0 .186-.141.356-.215.52-.224.173-.01.387.073.46.255.04.1.035.226-.014.354-.046.118-.121.223-.194.326a.035.035 0 0 0 .054.045c.259-.264.694-.38 1.06-.28.194.053.402.204.399.409-.003.118-.073.234-.222.365a2.195 2.195 0 0 1-1.803.5.035.035 0 0 0-.04.03c-.004.019.008.037.028.041a2.242 2.242 0 0 0 1.862-.517c.103-.091.241-.233.245-.417.005-.243-.23-.419-.451-.48a1.213 1.213 0 0 0-.945.152 1.02 1.02 0 0 0 .073-.148.558.558 0 0 0 .013-.406c-.076-.19-.294-.314-.53-.3a.955.955 0 0 0-.47.176c.068-.21.13-.44.103-.673-.031-.26-.21-.544-.494-.58-.196-.025-.372.075-.485.164a1.444 1.444 0 0 0-.474.738 2.28 2.28 0 0 0-.08.67.646.646 0 0 0-.437-.296.746.746 0 0 0-.68.268.954.954 0 0 0-.196.714c.029.235.14.474.314.672ZM10.163 8.671c.238.03.47-.03.67-.112a.88.88 0 0 0-.245.52c-.021.267.15.585.44.634a.493.493 0 0 0 .08.007c.16 0 .326-.078.458-.218.131-.138.212-.307.296-.498a.036.036 0 0 0-.017-.047.035.035 0 0 0-.047.018c-.082.184-.16.348-.283.478-.136.144-.318.217-.475.19-.252-.043-.4-.323-.381-.558.018-.228.162-.456.395-.627a.036.036 0 0 0 .01-.047.035.035 0 0 0-.046-.013c-.231.115-.536.242-.846.203-.26-.033-.553-.226-.583-.52-.026-.257.157-.486.314-.632.187-.173.485-.383.848-.4.333-.014.652.162.776.43.006.014.02.022.035.02a.035.035 0 0 0 .031-.026c.106-.447.428-.843.882-1.088.1-.054.35-.166.507-.033.144.123.103.363.065.496a2.169 2.169 0 0 1-.946 1.245.036.036 0 0 0-.012.05c.01.016.032.021.048.011.47-.285.825-.755.977-1.286.042-.15.088-.422-.088-.57-.189-.16-.472-.037-.584.024-.443.239-.765.617-.895 1.048-.157-.249-.472-.407-.799-.391-.385.018-.698.237-.893.417-.17.157-.365.405-.337.693.034.33.357.546.645.582ZM7.324 10.617c-.165.117-.295.35-.225.571.061.191.24.298.416.364a.93.93 0 0 0-.394.143c-.186.126-.288.34-.256.53.026.15.134.293.297.392.255.156.564.182.837.204.123.01.25.02.377.02.068 0 .137-.002.205-.01.22-.024.41-.098.549-.213a.036.036 0 0 0 .005-.05.035.035 0 0 0-.05-.005.967.967 0 0 1-.512.197c-.188.022-.382.005-.568-.01-.265-.021-.565-.046-.806-.194-.146-.089-.242-.214-.264-.343-.033-.19.09-.367.225-.459.131-.089.3-.136.532-.148a.035.035 0 0 0 .033-.032.036.036 0 0 0-.026-.038c-.195-.053-.462-.149-.533-.37-.06-.188.054-.39.198-.491.135-.096.313-.144.56-.15.344-.01.652.06.89.203.277.167.467.447.495.732.001.017.014.03.031.032a.036.036 0 0 0 .037-.025c.06-.195.16-.368.289-.502a.795.795 0 0 1 .507-.256.54.54 0 0 1 .49.232c.108.174.093.428-.038.645-.122.203-.312.35-.496.493a.036.036 0 0 0-.007.05.035.035 0 0 0 .05.007c.18-.14.385-.299.513-.513.146-.24.16-.523.038-.72a.603.603 0 0 0-.554-.266.865.865 0 0 0-.553.278c-.109.112-.197.25-.26.405a1.11 1.11 0 0 0-.506-.654c-.253-.151-.565-.223-.928-.213-.26.007-.45.06-.597.163ZM4.733 7.906a.035.035 0 0 0 .03-.041.976.976 0 0 1 .096-.557c.072-.152.176-.298.336-.475.112-.122.262-.261.436-.26.14.001.28.1.356.25.077.153.086.331.085.47 0 .02.015.035.035.036a.036.036 0 0 0 .035-.035.71.71 0 0 1 .41-.62c.138-.062.33-.075.45.034.099.09.118.23.12.305.01.227-.09.432-.175.564a2.926 2.926 0 0 1-.386.451l-.012.012a.036.036 0 0 0 0 .05.036.036 0 0 0 .05 0l.012-.012a.756.756 0 0 1 .57-.217c.215.013.42.124.55.297a.572.572 0 0 1 .124.393c-.024.257-.252.443-.447.577a.036.036 0 0 0-.01.05.035.035 0 0 0 .05.01c.192-.132.45-.34.477-.63a.644.644 0 0 0-.137-.442.822.822 0 0 0-.602-.325.817.817 0 0 0-.361.063c.065-.075.127-.154.182-.238.13-.201.194-.41.187-.605a.497.497 0 0 0-.144-.355c-.153-.14-.38-.113-.527-.047a.776.776 0 0 0-.397.423.828.828 0 0 0-.076-.24c-.088-.175-.252-.289-.417-.29H5.63c-.2 0-.364.151-.484.284a2.012 2.012 0 0 0-.348.492c-.097.202-.133.41-.104.599.003.02.021.032.04.03v-.001Z"/>
</svg>
